<?xml version="1.0" standalone="no"?>
<!DOCTYPE svg PUBLIC "-//W3C//DTD SVG 20010904//EN"
 "http://www.w3.org/TR/2001/REC-SVG-20010904/DTD/svg10.dtd">
<svg version="1.0" xmlns="http://www.w3.org/2000/svg"
 width="321.000000pt" height="321.000000pt" viewBox="0 0 321.000000 321.000000"
 preserveAspectRatio="xMidYMid meet">
<metadata>
Created by potrace 1.11, written by Peter Selinger 2001-2013
</metadata>
<g transform="translate(0.000000,321.000000) scale(0.100000,-0.100000)"
fill="#000000" stroke="none">
<path d="M2076 2842 c-2 -4 -183 -7 -401 -7 -218 0 -399 -3 -402 -8 -3 -4 -5
-116 -5 -247 0 -132 -3 -240 -7 -241 -3 0 -33 -2 -66 -4 -120 -6 -231 -15
-255 -20 -47 -11 -95 -18 -122 -19 -14 -1 -24 -4 -22 -8 2 -4 -6 -10 -18 -14
-115 -35 -193 -101 -248 -208 -22 -42 -38 -76 -36 -76 2 0 -2 -20 -9 -44 -8
-24 -11 -47 -8 -50 4 -3 2 -6 -3 -6 -5 0 -10 -15 -10 -33 -4 -98 -8 -127 -18
-127 -6 0 -5 -4 2 -9 8 -4 14 -12 14 -16 0 -4 -6 -12 -14 -16 -7 -5 -8 -9 -3
-9 6 0 10 -107 11 -298 2 -357 6 -501 17 -495 4 2 7 -6 8 -19 0 -13 3 -32 5
-43 2 -11 5 -39 7 -62 1 -22 5 -39 8 -37 4 2 10 -15 13 -38 4 -23 12 -48 18
-55 5 -7 8 -20 4 -28 -3 -9 -2 -13 3 -10 5 3 12 -3 15 -12 9 -27 57 -77 93
-98 18 -10 29 -23 26 -28 -3 -6 -1 -7 6 -3 6 4 17 3 24 -2 12 -9 45 -19 97
-29 13 -2 27 -7 30 -11 3 -4 16 -8 30 -9 66 -5 78 -8 74 -15 -3 -4 0 -8 5 -8
6 0 11 5 11 11 0 5 5 7 12 3 14 -9 73 -14 146 -14 35 0 52 -4 52 -12 0 -8 3
-9 8 -3 4 6 24 11 45 11 34 0 42 -6 38 -29 -1 -5 3 -6 8 -2 6 3 7 13 4 23 -6
15 -5 15 10 3 13 -10 17 -10 17 -1 0 9 4 9 17 -1 11 -10 14 -10 9 -1 -4 6 -3
12 3 12 5 0 12 -6 14 -12 4 -10 6 -10 6 0 1 6 6 12 12 12 5 0 8 -4 5 -8 -3 -5
1 -9 9 -9 8 0 12 4 9 9 -8 13 10 10 25 -4 11 -11 13 -10 7 0 -12 20 83 16 108
-5 12 -10 15 -11 9 -3 -20 22 -16 25 35 28 90 5 102 7 102 16 0 4 13 6 30 4
16 -2 31 -2 32 1 4 8 150 56 165 54 7 0 10 4 7 9 -7 10 27 39 37 32 4 -2 10 3
13 12 3 9 11 12 18 8 8 -5 9 -2 5 10 -6 14 -3 17 8 12 9 -3 13 -2 10 4 -3 5 4
30 15 55 11 25 23 58 26 75 4 16 10 28 13 25 4 -2 6 9 5 26 -1 16 2 31 7 34 4
3 5 13 2 22 -5 12 -3 14 8 8 11 -6 11 -5 3 4 -7 8 -9 25 -4 47 4 19 5 34 1 34
-3 0 2 5 12 11 9 5 17 15 17 22 0 7 -4 6 -10 -3 -7 -11 -9 -1 -7 33 1 32 6 46
14 43 7 -3 15 0 19 6 4 6 3 8 -3 5 -6 -4 -16 0 -22 7 -7 8 -8 16 -4 19 4 3 8
20 7 39 -1 19 5 38 14 44 12 9 12 13 2 19 -9 5 -11 4 -6 -3 4 -7 3 -12 -3 -12
-9 0 -7 108 4 137 2 6 -1 14 -8 17 -7 2 -7 5 -2 5 6 1 9 26 7 62 -3 49 -1 60
10 53 10 -6 11 -5 2 7 -6 8 -12 39 -13 70 -1 31 -4 64 -5 75 -2 10 4 25 13 32
14 12 14 13 0 9 -12 -4 -15 5 -15 52 l1 56 102 0 c82 1 103 -2 103 -13 0 -12
3 -12 15 -2 8 7 15 8 15 3 0 -5 10 -9 22 -10 11 -1 25 -8 29 -15 5 -7 9 -10 9
-6 0 26 89 -83 94 -115 1 -6 5 -18 10 -25 8 -14 19 -156 17 -232 -1 -49 0 -95
3 -150 1 -19 -1 -44 -4 -55 -4 -11 -3 -33 0 -50 3 -16 3 -40 -2 -52 -4 -14 -4
-23 2 -23 6 0 9 -6 8 -12 -2 -9 15 -13 56 -14 38 -1 61 -6 67 -15 5 -8 9 -9 9
-3 0 6 16 11 35 12 45 2 56 8 48 29 -4 10 -2 14 5 9 6 -3 14 -2 17 4 4 6 3 10
-2 9 -20 -3 -23 2 -12 22 6 12 7 19 1 15 -5 -3 -10 15 -11 45 0 27 3 48 7 45
4 -2 8 4 8 14 0 10 -3 17 -6 15 -4 -2 -6 44 -6 103 1 83 4 106 14 104 8 -1 11
2 7 8 -3 6 -11 8 -16 4 -13 -8 -7 29 6 38 6 5 6 8 -1 8 -7 0 -11 15 -10 38 2
20 0 41 -3 47 -3 5 -6 16 -7 25 -4 32 -15 80 -24 105 -6 15 -8 31 -4 36 3 5 2
8 -3 7 -4 -2 -9 1 -10 6 0 5 -8 13 -17 18 -9 5 -13 14 -10 20 4 7 2 8 -4 4 -6
-4 -17 2 -24 14 -7 11 -18 20 -25 20 -7 0 -13 4 -13 10 0 5 -3 9 -7 8 -8 -1
-51 15 -86 33 -10 6 -22 7 -27 4 -6 -4 -10 -2 -10 3 0 9 38 20 83 25 9 1 17 6
17 12 0 5 5 3 10 -5 8 -13 10 -12 10 4 0 11 3 17 6 13 4 -3 13 1 21 9 8 8 19
12 24 9 5 -4 9 -1 9 5 0 16 28 42 39 36 5 -3 8 2 7 12 0 9 4 16 10 15 7 -1 10
6 7 17 -3 11 0 20 6 20 6 0 10 3 10 8 -4 22 3 34 16 29 8 -4 17 -2 20 4 4 5 3
9 -2 8 -20 -3 -27 2 -13 11 8 5 10 10 4 10 -16 0 -4 52 15 68 14 11 14 11 -3
6 -15 -6 -17 -4 -9 12 6 10 9 36 8 57 -2 31 0 37 14 33 11 -4 10 -2 -3 9 -11
8 -15 15 -10 15 6 0 7 26 4 66 -3 36 -2 68 3 71 4 2 3 11 -3 18 -6 7 -9 32 -7
54 2 22 0 38 -5 35 -4 -3 -8 1 -8 10 0 8 6 17 13 19 7 3 5 6 -6 6 -9 1 -16 4
-15 9 2 11 -12 64 -24 89 -6 11 -7 27 -3 34 5 7 4 10 -2 6 -6 -4 -19 6 -29 21
-10 15 -24 33 -31 40 -7 8 -11 18 -8 23 4 5 -1 6 -9 3 -9 -3 -16 -2 -16 3 0 6
-18 18 -39 29 -22 10 -37 22 -35 26 3 4 -2 5 -10 2 -9 -3 -16 -1 -16 6 0 6 -4
8 -10 5 -5 -3 -22 1 -38 9 -16 8 -32 13 -35 9 -4 -3 -14 -2 -24 2 -10 5 -25 7
-34 6 -9 -1 -28 3 -42 8 -17 7 -28 7 -32 1 -4 -6 -14 -7 -23 -2 -9 4 -46 7
-82 7 -36 -1 -73 2 -82 7 -9 4 -19 5 -22 0z m-536 -204 c0 -9 3 -10 8 -2 9 14
194 15 185 1 -4 -6 -1 -7 8 -1 21 13 160 14 152 1 -4 -6 -1 -7 8 -1 8 5 79 9
158 10 87 1 139 -1 130 -7 -9 -6 -10 -9 -2 -9 6 0 14 4 17 9 7 10 82 5 151
-11 54 -12 98 -35 90 -48 -3 -4 3 -7 13 -6 11 1 16 -5 14 -18 -2 -10 1 -15 7
-12 6 4 17 -17 27 -51 22 -73 23 -82 28 -227 4 -151 -18 -244 -73 -302 -26
-29 -101 -64 -143 -68 -19 -2 -40 -6 -45 -9 -9 -6 -165 -12 -200 -8 -7 0 -10
8 -6 18 4 10 2 14 -5 9 -6 -4 -11 1 -10 11 0 18 -4 34 -21 90 -7 24 -6 35 5
44 8 6 14 16 14 22 0 6 -6 2 -14 -8 -13 -18 -15 -17 -30 19 -9 21 -16 42 -16
46 0 5 -4 10 -9 12 -5 2 -11 10 -13 18 -2 8 -19 26 -38 39 -19 14 -37 27 -40
31 -9 11 -77 40 -109 46 -17 4 -31 9 -31 13 0 4 -8 7 -17 8 -10 1 -31 4 -48 7
-16 3 -52 9 -80 12 -27 3 -54 7 -60 8 -5 0 -16 8 -25 16 -11 12 -12 12 -5 1 8
-11 6 -13 -5 -9 -12 4 -15 32 -17 161 l-2 157 25 0 c13 0 24 -6 24 -12z m-425
-506 c0 -6 3 -14 7 -18 4 -3 6 2 3 13 -3 19 2 21 70 21 l73 0 -2 -618 -1 -618
33 -4 c18 -2 36 0 38 4 9 15 23 -2 17 -20 -5 -14 -3 -14 9 2 8 10 20 16 26 12
7 -4 12 -1 12 6 0 9 3 9 8 2 4 -6 23 -9 45 -6 36 4 37 5 37 46 1 22 0 143 0
269 -1 178 2 227 12 228 7 0 4 4 -7 9 -18 7 -19 8 -2 15 9 4 17 11 17 17 0 5
-4 6 -10 3 -6 -4 -9 32 -8 93 l0 100 89 -1 c49 0 89 -4 89 -9 0 -4 5 -8 11 -8
5 0 8 4 4 9 -4 7 157 9 186 2 5 -1 10 -109 10 -181 -1 -14 0 -103 1 -125 2
-107 -16 -470 -27 -520 -2 -11 -7 -42 -11 -69 -9 -68 -37 -129 -68 -149 -14
-10 -26 -15 -26 -11 0 4 -7 1 -15 -6 -19 -15 -110 -37 -147 -36 -16 1 -28 -1
-28 -4 0 -3 -12 -6 -27 -7 -16 -1 -94 -4 -175 -8 -99 -4 -148 -2 -153 5 -3 6
-12 7 -18 3 -17 -11 -31 -10 -39 2 -5 7 -8 7 -8 0 0 -6 -17 -10 -37 -8 -77 4
-178 15 -193 20 -8 3 -28 7 -43 9 -62 8 -147 70 -131 95 4 7 3 10 -4 5 -11 -7
-18 8 -26 58 -3 16 -8 31 -10 34 -3 3 0 12 7 20 9 13 9 14 0 8 -8 -4 -13 -2
-13 8 0 8 6 17 13 19 6 3 3 6 -7 6 -20 1 -20 1 0 17 16 13 16 15 2 10 -20 -6
-21 -5 -12 18 3 9 11 13 17 9 6 -3 7 -1 3 6 -4 6 -11 9 -16 6 -13 -8 -20 21
-7 34 6 6 7 11 1 11 -5 0 -10 9 -11 20 -1 11 2 20 8 20 5 0 9 5 9 11 0 5 -4 8
-9 5 -5 -4 -11 19 -13 49 -1 30 1 55 5 55 4 0 4 8 -1 18 -13 27 -8 107 7 126
12 14 12 17 1 14 -18 -4 -23 143 -6 154 8 5 8 8 0 8 -11 0 -11 70 0 88 3 6 0
13 -6 16 -10 5 -10 7 1 12 11 5 11 8 0 15 -11 7 -9 9 6 9 16 0 17 2 5 10 -17
11 -15 81 3 92 8 5 7 8 -3 8 -13 0 -13 1 0 10 10 6 11 10 3 10 -7 0 -13 8 -13
18 0 14 2 15 10 2 6 -9 10 -10 10 -3 0 6 -5 15 -10 18 -6 4 -8 10 -6 14 3 4 8
38 11 76 5 51 13 77 28 95 12 13 14 19 5 11 -15 -11 -17 -10 -15 8 1 13 6 20
14 17 7 -3 15 0 19 6 4 6 3 8 -4 4 -15 -9 -26 12 -13 28 6 7 9 15 6 18 -3 3 9
19 27 37 27 26 69 46 124 57 6 1 21 5 33 9 14 4 21 2 21 -7 0 -10 3 -9 10 2 5
8 10 11 10 7 0 -5 6 -5 13 0 21 13 39 12 33 -2 -3 -8 -1 -17 5 -20 5 -4 9 -3
8 2 -4 24 5 32 39 35 53 5 67 3 67 -10z m408 -18 c4 10 3 15 -3 11 -6 -3 -10
-2 -10 4 0 5 15 8 33 6 47 -4 60 -8 75 -25 8 -8 11 -9 7 -2 -9 17 29 16 44 -1
6 -8 7 -18 3 -22 -4 -5 -1 -5 6 -1 7 4 10 11 7 16 -3 4 4 6 15 3 11 -3 20 -9
20 -14 0 -5 3 -8 8 -8 27 5 77 -35 66 -53 -3 -4 2 -8 11 -8 11 0 15 -5 11 -16
-4 -10 -2 -13 6 -8 7 5 9 0 6 -14 -4 -12 -2 -20 2 -17 8 5 24 -49 25 -80 0
-13 -158 -14 -167 0 -5 7 -8 7 -8 0 0 -12 -88 -13 -107 -2 -6 4 -14 3 -17 -1
-4 -7 -20 -8 -57 -3 -3 1 -5 29 -5 64 1 56 3 62 21 59 16 -2 17 -1 5 7 -8 5
-18 7 -22 5 -4 -3 -8 13 -8 36 0 30 3 39 13 34 10 -6 10 -4 0 7 -7 7 -13 22
-13 34 1 19 2 18 14 -4 11 -20 14 -21 19 -7z"/>
<path d="M2233 2625 c0 -8 4 -12 9 -9 5 3 6 10 3 15 -9 13 -12 11 -12 -6z"/>
<path d="M1969 2613 c-13 -16 -12 -17 4 -4 9 7 17 15 17 17 0 8 -8 3 -21 -13z"/>
<path d="M2269 2613 c-13 -16 -12 -17 4 -4 9 7 17 15 17 17 0 8 -8 3 -21 -13z"/>
<path d="M1508 2613 c6 -2 18 -2 25 0 6 3 1 5 -13 5 -14 0 -19 -2 -12 -5z"/>
<path d="M2319 2603 c-13 -16 -12 -17 4 -4 9 7 17 15 17 17 0 8 -8 3 -21 -13z"/>
<path d="M1519 2483 c-13 -16 -12 -17 4 -4 9 7 17 15 17 17 0 8 -8 3 -21 -13z"/>
<path d="M2020 2110 c-9 -6 -10 -10 -3 -10 6 0 15 5 18 10 8 12 4 12 -15 0z"/>
<path d="M2047 1989 c7 -7 15 -10 18 -7 3 3 -2 9 -12 12 -14 6 -15 5 -6 -5z"/>
<path d="M850 2089 c0 -5 5 -7 10 -4 6 3 10 8 10 11 0 2 -4 4 -10 4 -5 0 -10
-5 -10 -11z"/>
<path d="M1556 1663 c-6 -14 -5 -15 5 -6 7 7 10 15 7 18 -3 3 -9 -2 -12 -12z"/>
<path d="M1507 1657 c-3 -7 3 -13 14 -13 13 0 15 3 7 13 -6 7 -12 13 -13 13
-2 0 -5 -6 -8 -13z"/>
<path d="M1729 1653 c-13 -16 -12 -17 4 -4 9 7 17 15 17 17 0 8 -8 3 -21 -13z"/>
<path d="M670 1176 c0 -2 7 -7 16 -10 8 -3 12 -2 9 4 -6 10 -25 14 -25 6z"/>
<path d="M1506 1068 c3 -5 10 -6 15 -3 13 9 11 12 -6 12 -8 0 -12 -4 -9 -9z"/>
<path d="M680 1056 c0 -2 8 -10 18 -17 15 -13 16 -12 3 4 -13 16 -21 21 -21
13z"/>
<path d="M1536 2111 c-4 -5 3 -7 14 -4 23 6 26 13 6 13 -8 0 -17 -4 -20 -9z"/>
<path d="M2735 2570 c-3 -5 -1 -10 4 -10 6 0 11 5 11 10 0 6 -2 10 -4 10 -3 0
-8 -4 -11 -10z"/>
<path d="M2700 1936 c0 -2 7 -7 16 -10 8 -3 12 -2 9 4 -6 10 -25 14 -25 6z"/>
<path d="M2530 1780 c-9 -6 -10 -10 -3 -10 6 0 15 5 18 10 8 12 4 12 -15 0z"/>
<path d="M2095 1660 c3 -5 8 -10 11 -10 2 0 4 5 4 10 0 6 -5 10 -11 10 -5 0
-7 -4 -4 -10z"/>
<path d="M2109 1633 c-13 -16 -12 -17 4 -4 9 7 17 15 17 17 0 8 -8 3 -21 -13z"/>
<path d="M2710 1559 c0 -5 5 -7 10 -4 6 3 10 8 10 11 0 2 -4 4 -10 4 -5 0 -10
-5 -10 -11z"/>
<path d="M2106 1308 c3 -5 10 -6 15 -3 13 9 11 12 -6 12 -8 0 -12 -4 -9 -9z"/>
<path d="M2075 771 c-3 -5 -2 -12 3 -15 5 -3 9 1 9 9 0 17 -3 19 -12 6z"/>
<path d="M2030 661 c0 -6 4 -13 10 -16 6 -3 7 1 4 9 -7 18 -14 21 -14 7z"/>
<path d="M1954 496 c1 -8 5 -18 8 -22 4 -3 5 1 4 10 -1 8 -5 18 -8 22 -4 3 -5
-1 -4 -10z"/>
<path d="M1910 479 c0 -5 5 -7 10 -4 6 3 10 8 10 11 0 2 -4 4 -10 4 -5 0 -10
-5 -10 -11z"/>
<path d="M1850 441 c0 -6 4 -13 10 -16 6 -3 7 1 4 9 -7 18 -14 21 -14 7z"/>
<path d="M796 392 c-3 -5 1 -9 9 -9 8 0 12 4 9 9 -3 4 -7 8 -9 8 -2 0 -6 -4
-9 -8z"/>
</g>
</svg>
